<svg width="20" height="20" viewBox="0 0 24 24" fill="none" xmlns="http://www.w3.org/2000/svg">
    <path
        d="M5 1a4 4 0 0 0-4 4v14a4 4 0 0 0 4 4h14a4 4 0 0 0 4-4V5a4 4 0 0 0-4-4H5Zm0 2h14a2 2 0 0 1 2 2v14a2 2 0 0 1-2 2H5a2 2 0 0 1-2-2V5a2 2 0 0 1 2-2Z"
        fill="black" stroke="black" stroke-width=".3" />
    <path
        d="M13.25 7a1.25 1.25 0 1 0-2.5 0v3.75H7a1.25 1.25 0 0 0 0 2.5h3.75V17a1.25 1.25 0 1 0 2.5 0v-3.75H17a1.25 1.25 0 0 0 0-2.5h-3.75V7Z"
        fill="black" stroke-width="15" />
</svg>