<svg
    width="20"
    height="20"
    viewBox="0 0 24 24"
    fill="none"
    xmlns="http://www.w3.org/2000/svg"
>
    <path
        fillRule="evenodd"
        clipRule="evenodd"
        d="M4 7.45081V16.5492L12 21.1206L20 16.5492V7.45081L12 2.87938L4 7.45081ZM12 0L1.5 6V18L12 24L22.5 18V6L12 0Z"
        fill="white"
        stroke="black"
        strokeWidth="2"
    />
    <path
        fillRule="evenodd"
        clipRule="evenodd"
        d="M12 9C10.3431 9 9 10.3431 9 12C9 13.6569 10.3431 15 12 15C13.6569 15 15 13.6569 15 12C15 10.3431 13.6569 9 12 9ZM6.5 12C6.5 8.96243 8.96243 6.5 12 6.5C15.0376 6.5 17.5 8.96243 17.5 12C17.5 15.0376 15.0376 17.5 12 17.5C8.96243 17.5 6.5 15.0376 6.5 12Z"
        fill="black"
    />
</svg>