<svg
    width="20"
    height="20"
    viewBox="0 0 24 24"
    fill="none"
    xmlns="http://www.w3.org/2000/svg"
>
    <path
        d="M16.5 14.227V7C16.5 4.51471 14.4853 2.5 12 2.5C9.51471 2.5 7.5 4.51471 7.5 7V14.227L6.73561 14.9643C6.26116 15.422 5.84638 15.9379 5.5032 16.5H18.4968C18.1536 15.9379 17.7388 15.422 17.2644 14.9643L16.5 14.227ZM21.3013 16.5C21.6365 17.2867 21.8745 18.1248 22 19H2C2.12546 18.1248 2.36354 17.2867 2.69865 16.5C3.23694 15.2362 4.0256 14.1049 5 13.165V7C5 3.134 8.134 0 12 0C15.866 0 19 3.134 19 7V13.165C19.9744 14.1049 20.7631 15.2362 21.3013 16.5ZM15 20.9998H9C9 21.1702 9.01421 21.3373 9.0415 21.5C9.18134 22.3334 9.66468 23.0501 10.341 23.4998C10.8161 23.8157 11.3866 23.9998 12 23.9998C12.6134 23.9998 13.1839 23.8157 13.659 23.4998C14.3353 23.0501 14.8187 22.3334 14.9585 21.5C14.9858 21.3373 15 21.1702 15 20.9998Z"
        fill="black"
    />
</svg>